<svg width="131" height="40" xmlns="http://www.w3.org/2000/svg" fill="none">
 <defs>
  <linearGradient y2="0.29587" x2="1.1151" y1="0.67073" x1="0.02475" id="paint0_linear_425_166">
   <stop stop-color="#F89E00"/>
   <stop stop-color="#DA2F68" offset="1"/>
  </linearGradient>
 </defs>
 <g>
  <title>Layer 1</title>
  <circle id="svg_1" fill="url(#paint0_linear_425_166)" r="13.5" cy="19.5" cx="17.5"/>
  <path id="svg_2" fill="white" d="m10.4286,15.1351c4.1789,-1.0458 8.348,-2.0891 12.5273,-3.1351c0.2193,0.848 0.4364,1.6879 0.6559,2.5371c-3.2632,0.8166 -6.5211,1.6321 -9.7789,2.4475c0.0007,0.0052 0.0013,0.0103 0.0021,0.0155l10.0878,0c0.0017,0.0369 0.0046,0.0667 0.0046,0.0968c0.0002,2.1909 0.0013,4.382 -0.0004,6.5729c-0.001,1.2235 -1.0098,2.2627 -2.2476,2.3198c-0.1205,0.0056 -0.2413,0.009 -0.362,0.009c-2.6342,0.0006 -5.2684,0.0009 -7.9024,0c-0.6584,-0.0002 -1.2336,-0.2197 -1.7036,-0.6731c-0.4278,-0.4129 -0.67,-0.9192 -0.7071,-1.5129c-0.0074,-0.1185 -0.0097,-0.2374 -0.0097,-0.3561c-0.0006,-1.9376 -0.0015,-3.8751 0.0013,-5.8125c0.0004,-0.2017 -0.0221,-0.3961 -0.0746,-0.5918c-0.1646,-0.6127 -0.3192,-1.2278 -0.4775,-1.8422c-0.0053,-0.0206 -0.0085,-0.0418 -0.0152,-0.0749zm1.1763,4.4925l0,0.1016c0,1.3083 -0.0002,2.6167 0.0008,3.9249c0,0.0715 0.0063,0.1436 0.0171,0.2144c0.1388,0.905 0.8776,1.5298 1.8077,1.5298c2.6658,0 5.3317,0 7.9976,-0.0003c0.073,0 0.1461,-0.0034 0.2188,-0.0087c0.9514,-0.0682 1.6698,-0.8288 1.6698,-1.7683c0,-1.2928 0,-2.5853 0,-3.8781l0,-0.1153l-11.7118,0zm1.8656,-2.024c0.0201,0.0321 0.0319,0.0532 0.0457,0.0727c0.2999,0.4256 0.6009,0.8504 0.8985,1.2776c0.0348,0.0499 0.0689,0.0698 0.1306,0.0693c0.3591,-0.0029 0.7182,-0.0014 1.0772,-0.0017c0.0271,0 0.0543,-0.0038 0.0848,-0.0062c-0.0067,-0.0173 -0.0082,-0.0271 -0.0134,-0.0344c-0.3115,-0.444 -0.6225,-0.8886 -0.9373,-1.3305c-0.0187,-0.0263 -0.0672,-0.0442 -0.1023,-0.0451c-0.1938,-0.0043 -0.3877,-0.0021 -0.5815,-0.0021c-0.1958,0 -0.3919,0 -0.6025,0l0.0002,0.0004zm5.1327,1.4182c-0.0219,-0.036 -0.0336,-0.058 -0.0477,-0.0781c-0.3003,-0.4262 -0.6019,-0.8514 -0.9003,-1.2789c-0.0334,-0.0477 -0.0679,-0.0627 -0.1244,-0.0625c-0.3627,0.0023 -0.7255,0.0011 -1.0882,0.0013c-0.0236,0 -0.0473,0.0023 -0.0824,0.0041c0.017,0.0263 0.0263,0.0417 0.0364,0.0562c0.2759,0.3933 0.5599,0.7813 0.8238,1.1823c0.0945,0.1435 0.1977,0.1858 0.3634,0.1794c0.3331,-0.013 0.667,-0.0039 1.0192,-0.0039l0.0002,0.0001zm0.6411,-1.4182c0.0208,0.0331 0.0324,0.0539 0.046,0.0735c0.3003,0.4259 0.6019,0.851 0.8997,1.2784c0.0353,0.0509 0.0714,0.068 0.1317,0.0675c0.3562,-0.0025 0.7124,-0.0012 1.0686,-0.0015c0.0277,0 0.0552,-0.0034 0.0911,-0.0057c-0.0105,-0.0212 -0.0155,-0.0355 -0.0237,-0.0473c-0.3083,-0.4395 -0.6162,-0.8792 -0.9275,-1.3166c-0.0188,-0.0263 -0.0661,-0.0457 -0.1005,-0.0464c-0.2065,-0.0043 -0.4134,-0.0021 -0.6202,-0.0021c-0.1832,0 -0.3665,0 -0.5652,0l0,0.0002zm1.8521,-3.0594c-0.0207,-0.0214 -0.0285,-0.0312 -0.0378,-0.0392c-0.411,-0.3526 -0.8217,-0.7057 -1.2346,-1.0562c-0.0208,-0.0176 -0.0635,-0.0251 -0.0912,-0.0184c-0.3694,0.0896 -0.738,0.1828 -1.1069,0.2752c-0.0135,0.0034 -0.0259,0.0103 -0.0607,0.0242c0.0296,0.0192 0.0468,0.0278 0.0609,0.0398c0.3521,0.3004 0.7111,0.5936 1.0521,0.9057c0.1418,0.1298 0.2659,0.1749 0.457,0.1153c0.3104,-0.0969 0.6307,-0.1634 0.9612,-0.2464zm-5.5978,1.4011c-0.015,-0.0195 -0.0208,-0.0306 -0.0295,-0.0383c-0.4044,-0.345 -0.81,-0.6885 -1.2119,-1.0362c-0.05,-0.0432 -0.0889,-0.0499 -0.1508,-0.0338c-0.3003,0.0783 -0.6021,0.1508 -0.9031,0.2258c-0.0695,0.0173 -0.1384,0.0362 -0.226,0.0593c0.0988,0.0851 0.184,0.1582 0.2689,0.2312c0.327,0.2808 0.6533,0.5624 0.9824,0.8407c0.0286,0.0243 0.0804,0.0455 0.1138,0.0376c0.3818,-0.0909 0.7622,-0.1876 1.1562,-0.2863zm0.2875,-1.5284c0.0105,0.0197 0.0121,0.0266 0.0165,0.0302c0.4129,0.3548 0.8252,0.7102 1.241,1.0618c0.0267,0.0225 0.0832,0.0276 0.1204,0.0187c0.3482,-0.0834 0.6951,-0.1714 1.0423,-0.2586c0.0287,-0.0071 0.0564,-0.0173 0.0966,-0.0297c-0.411,-0.3519 -0.8124,-0.6908 -1.2068,-1.0371c-0.0831,-0.0729 -0.156,-0.0875 -0.2551,-0.0511c-0.0677,0.025 -0.1408,0.0359 -0.2115,0.0537c-0.2787,0.0701 -0.5574,0.1401 -0.8434,0.2123l0,-0.0002zm-4.1766,4.5993l1.2055,0c-0.0008,-0.0114 0.0009,-0.0188 -0.0019,-0.0229c-0.3169,-0.4515 -0.6338,-0.903 -0.9524,-1.3536c-0.0122,-0.0173 -0.0384,-0.0329 -0.0592,-0.0344c-0.0622,-0.0045 -0.125,-0.0017 -0.1918,-0.0017l0,1.4126l-0.0002,0zm-0.0863,-2.076c0.3971,-0.0995 0.7848,-0.1966 1.1977,-0.3001c-0.0355,-0.0259 -0.0542,-0.0376 -0.0708,-0.0518c-0.3807,-0.3244 -0.7612,-0.649 -1.1414,-0.9737c-0.127,-0.1084 -0.1726,-0.1131 -0.336,-0.0278c0.1161,0.448 0.2323,0.8972 0.3505,1.3536l0,-0.0002zm10.6057,0.6668c0.3116,0.4423 0.6176,0.8675 0.9116,1.3006c0.0733,0.108 0.1519,0.1351 0.2701,0.1034l0,-1.4042l-1.1817,0l0,0.0002zm0.3837,-4.8745c-0.3823,0.0962 -0.7538,0.1895 -1.1255,0.2829l-0.0088,0.0266c0.0164,0.01 0.0344,0.0181 0.0487,0.0303c0.3782,0.3221 0.7598,0.6402 1.1311,0.9697c0.0981,0.0869 0.1819,0.1189 0.3052,0.0471c-0.1159,-0.4483 -0.2327,-0.9 -0.3509,-1.3568l0.0002,0.0002z"/>
  <path id="svg_3" fill="white" d="m16.3951,20.7748c0.0201,0.0094 0.0489,0.0205 0.0756,0.0355c0.8027,0.4553 1.6053,0.9109 2.4078,1.3664c0.1457,0.0826 0.2913,0.1654 0.4368,0.2485c0.1099,0.0629 0.1103,0.1468 -0.001,0.2101c-0.8159,0.4641 -1.6322,0.9275 -2.4482,1.391c-0.132,0.075 -0.2635,0.1505 -0.3962,0.2243c-0.1137,0.0633 -0.1872,0.0238 -0.1872,-0.1026c-0.0006,-1.0799 0,-2.1599 -0.0008,-3.2399c0,-0.071 0.0208,-0.1222 0.1132,-0.1333z"/>
  <text font-style="normal" font-weight="normal" transform="matrix(2.11117 0 0 1.68245 -46.2616 -14.4298)" stroke="null" xml:space="preserve" text-anchor="start" font-family="serif" font-size="12" stroke-width="0" id="svg_6" y="24.09022" x="39.10628" fill="#f89e00">RadiFlix</text>
 </g>
</svg>